<svg xmlns="http://www.w3.org/2000/svg" viewBox="0 0 18.33 15.57"><defs><style>.cls-1{fill:#4f4fb2;}</style></defs><title>Like</title><g id="Слой_2" data-name="Слой 2"><g id="Слой_1-2" data-name="Слой 1"><path class="cls-1" d="M18.21,4.26A5.4,5.4,0,0,0,14,.14,5.24,5.24,0,0,0,9.17,1.58,5.22,5.22,0,0,0,4.31.12,5.4,5.4,0,0,0,.12,4.25,5.29,5.29,0,0,0,1.44,9a.78.78,0,0,0,.1.15l6.4,5.92a1.74,1.74,0,0,0,.18.11,1.36,1.36,0,0,0,1,.35,1.42,1.42,0,0,0,1-.32.88.88,0,0,0,.21-.12l6.39-5.92a.53.53,0,0,0,.11-.15A5.34,5.34,0,0,0,18.21,4.26ZM13.83,9.94h0l-4.66,4.3L4.5,9.92h0C2.69,8.11,1,7.06,1.58,4.48A3.92,3.92,0,0,1,8.25,2.71h0s0,.07.06.09l.51.52a.5.5,0,0,0,.68,0L10,2.79a.25.25,0,0,0,0-.07h0A3.93,3.93,0,0,1,16.75,4.5C17.34,7.08,15.64,8.13,13.83,9.94Z"/></g></g></svg>