<svg xmlns="http://www.w3.org/2000/svg" viewBox="0 0 31.74 26.12"><defs><style>.cls-1{fill:#492a2a;}</style></defs><title>Photography</title><g id="Слой_2" data-name="Слой 2"><g id="Слой_1-2" data-name="Слой 1"><path class="cls-1" d="M27.8,4.19H23a1,1,0,0,0,0,2h4.95A1.81,1.81,0,0,1,29.74,8V22.31a1.81,1.81,0,0,1-1.81,1.81H3.81A1.81,1.81,0,0,1,2,22.31V8A1.81,1.81,0,0,1,3.81,6.19L9,6.24h.48A1.52,1.52,0,0,0,11,4.72,2.72,2.72,0,0,1,13.67,2h4a1,1,0,0,0,0-2H12.88c-3,0-4.13,3.29-4.14,4.19H3.93C.22,4.19,0,6.76,0,7.66v15c0,.9.22,3.47,3.93,3.47H27.8c3.71,0,3.93-2.57,3.94-3.47v-15C31.73,6.76,31.51,4.19,27.8,4.19Z"/><path class="cls-1" d="M11.13,14.61A4.84,4.84,0,0,1,16,9.78h0a1.08,1.08,0,0,0,0-2.16h0a7,7,0,0,0-7,7.12,7.11,7.11,0,0,0,6.88,6.92A7,7,0,0,0,23,14.78h0a1.09,1.09,0,0,0-2.17,0h0A4.83,4.83,0,0,1,16,19.47,4.92,4.92,0,0,1,11.13,14.61Z"/></g></g></svg>