<svg xmlns="http://www.w3.org/2000/svg" viewBox="0 0 14 10.5"><defs><style>.a{fill:#3b3a3a;}</style></defs><g transform="translate(-1430.787 -429.858)"><g transform="translate(1430.787 429.858)"><path class="a" d="M13.872,68.508,9.5,64.132a.438.438,0,0,0-.747.31v2.187H7.437A7.446,7.446,0,0,0,0,74.066a.437.437,0,0,0,.317.42.411.411,0,0,0,.121.018A.437.437,0,0,0,.808,74.3l.131-.21A6.6,6.6,0,0,1,6.5,71H8.75v2.187a.438.438,0,0,0,.747.31l4.375-4.375A.438.438,0,0,0,13.872,68.508ZM9.625,72.135V70.566a.438.438,0,0,0-.437-.437H6.5A7.493,7.493,0,0,0,1.065,72.5,6.573,6.573,0,0,1,7.437,67.5h1.75a.438.438,0,0,0,.437-.437V65.5l3.319,3.319Z" transform="translate(0 -64.004)"/></g></g></svg>