<svg xmlns="http://www.w3.org/2000/svg" viewBox="0 0 14.6 14.72"><defs><style>.cls-1{fill:#539191;}</style></defs><title>Collection</title><g id="Слой_2" data-name="Слой 2"><g id="Слой_1-2" data-name="Слой 1"><path class="cls-1" d="M13.77,8.51a.83.83,0,0,0-.82.83v3.72H1.65V9.34A.83.83,0,1,0,0,9.34v4.54H0a.83.83,0,0,0,.83.82H13.77a.83.83,0,0,0,.83-.82h0V9.34A.83.83,0,0,0,13.77,8.51Z"/><path class="cls-1" d="M6.64,9.21a.83.83,0,0,0,.64.24.83.83,0,0,0,.64-.24L11.14,6a.83.83,0,0,0,0-1.17h0a.83.83,0,0,0-1.17,0L8.1,6.7V.82A.83.83,0,0,0,7.27,0h0a.83.83,0,0,0-.83.82V6.68L4.58,4.82A.82.82,0,0,0,3.42,6Z"/></g></g></svg>