<svg xmlns="http://www.w3.org/2000/svg" viewBox="0 0 12 12"><defs><style>.a{fill:#3b3a3a;}</style></defs><g transform="translate(-1122.999 -482)"><path class="a" d="M6,8.182H3.819V.545a.545.545,0,0,0-1.091,0V8.182H.547a.545.545,0,0,0-.386.931L2.888,11.84a.545.545,0,0,0,.771,0L6.387,9.113A.545.545,0,0,0,6,8.182Z" transform="translate(1122.998 482)"/><path class="a" d="M156.386,2.888,153.658.16a.545.545,0,0,0-.771,0L150.16,2.888a.545.545,0,0,0,.386.931h2.182v7.636a.545.545,0,0,0,1.091,0V3.819H156a.545.545,0,0,0,.386-.931Z" transform="translate(978.454 482)"/></g></svg>