<svg xmlns="http://www.w3.org/2000/svg" viewBox="0 0 20.59 15.77"><defs><style>.cls-1{fill:#4f4fb2;}</style></defs><title>Followers</title><g id="Слой_2" data-name="Слой 2"><g id="Слой_1-2" data-name="Слой 1"><path class="cls-1" d="M15.26,14.79a7.89,7.89,0,0,0-4.78-5.25,5.19,5.19,0,1,0-5.64,0,7.93,7.93,0,0,0-4.77,5.2.78.78,0,0,0-.07.31.72.72,0,0,0,.73.72.71.71,0,0,0,.68-.54h0a.14.14,0,0,1,0-.06,6.45,6.45,0,0,1,12.41,0h0a.73.73,0,0,0,.71.62.72.72,0,0,0,.72-.72.75.75,0,0,0-.05-.26ZM3.93,5.29A3.73,3.73,0,1,1,7.66,9,3.73,3.73,0,0,1,3.93,5.29Z"/><path class="cls-1" d="M17.74,9.19A5.1,5.1,0,0,0,18.79,6.1a5.18,5.18,0,0,0-5-5.17l-.08,0H13.6v0a.71.71,0,0,0-.65.71.72.72,0,0,0,.72.72.76.76,0,0,0,.16,0v0A3.71,3.71,0,0,1,17.32,6.2,5.56,5.56,0,0,1,16.09,9a.78.78,0,0,0-.34.64h0a.77.77,0,0,0,.62.76A3.41,3.41,0,0,1,19,13.06a.77.77,0,0,0,.77.63h0a.79.79,0,0,0,.79-.92A5,5,0,0,0,17.74,9.19Z"/></g></g></svg>