<svg xmlns="http://www.w3.org/2000/svg" viewBox="0 0 18.33 15.57"><defs><style>.cls-1{fill:#4f4fb2;}</style></defs><title>Like_active</title><g id="Слой_2" data-name="Слой 2"><g id="Слой_1-2" data-name="Слой 1"><path class="cls-1" d="M18.21,4.26A5.4,5.4,0,0,0,14,.14,5.24,5.24,0,0,0,9.17,1.58,5.22,5.22,0,0,0,4.31.12,5.4,5.4,0,0,0,.12,4.25,5.29,5.29,0,0,0,1.44,9a.78.78,0,0,0,.1.15l6.4,5.92a1.74,1.74,0,0,0,.18.11,1.36,1.36,0,0,0,1,.35,1.42,1.42,0,0,0,1-.32.88.88,0,0,0,.21-.12l6.39-5.92a.53.53,0,0,0,.11-.15A5.34,5.34,0,0,0,18.21,4.26Z"/></g></g></svg>