<svg xmlns="http://www.w3.org/2000/svg" viewBox="0 0 13 10"><defs><style>.cls-1{fill:#1feae0;}</style></defs><title>Message</title><g id="Слой_2" data-name="Слой 2"><g id="Слой_1-2" data-name="Слой 1"><path class="cls-1" d="M11.8,0H1.2A1.2,1.2,0,0,0,0,1.2V8.8A1.2,1.2,0,0,0,1.2,10H11.8A1.2,1.2,0,0,0,13,8.8V1.2A1.2,1.2,0,0,0,11.8,0ZM6.57,5,2.14,1.3H11ZM11.42,8.7H1.58a.31.31,0,0,1-.3-.3V2L6,6l.06,0a.86.86,0,0,0,.51.15,1,1,0,0,0,.35-.07A.67.67,0,0,0,7.14,6l4.58-3.85V8.4A.31.31,0,0,1,11.42,8.7Z"/></g></g></svg>