<svg xmlns="http://www.w3.org/2000/svg" viewBox="0 0 14.62 11.51"><defs><style>.cls-1{fill:#ce41ce;}</style></defs><title>New_message</title><g id="Слой_2" data-name="Слой 2"><g id="Слой_1-2" data-name="Слой 1"><path class="cls-1" d="M11.72,5.18V9.9a.31.31,0,0,1-.3.31H1.58a.31.31,0,0,1-.3-.31V3.52L6,7.47l.06,0a.8.8,0,0,0,.51.16,1,1,0,0,0,.35-.07.54.54,0,0,0,.23-.11l3.41-2.86a3.22,3.22,0,0,1-.74-.82L6.57,6.52,2.14,2.81H9.4a3.49,3.49,0,0,1-.06-.65,2.81,2.81,0,0,1,.07-.65H1.2A1.2,1.2,0,0,0,0,2.7v7.61a1.2,1.2,0,0,0,1.2,1.2H11.8a1.2,1.2,0,0,0,1.2-1.2V5.21a2.6,2.6,0,0,1-.56.06A3.38,3.38,0,0,1,11.72,5.18Z"/><path class="cls-1" d="M12.46,0a2.16,2.16,0,1,0,2.16,2.16A2.16,2.16,0,0,0,12.46,0Z"/></g></g></svg>