<svg xmlns="http://www.w3.org/2000/svg" viewBox="0 0 12 12.2"><defs><style>.cls-1{fill:#e292ff;}</style></defs><title>Ресурс 19</title><g id="Слой_2" data-name="Слой 2"><g id="Слой_1-2" data-name="Слой 1"><path class="cls-1" d="M11.35,8.49h-.08V5.23a.09.09,0,0,0,0-.05,5.26,5.26,0,0,0-10.52,0,.09.09,0,0,0,0,0V8.49H.65a.65.65,0,1,0,0,1.3h10.7a.65.65,0,1,0,0-1.3ZM10,5.3h0V8.49H2V5.27a4,4,0,0,1,8,0Z"/><path class="cls-1" d="M6,12.2a1.68,1.68,0,0,0,1.69-1.67H4.32A1.68,1.68,0,0,0,6,12.2Z"/></g></g></svg>