<svg xmlns="http://www.w3.org/2000/svg" viewBox="0 0 15.82 15.82"><defs><style>.cls-1{fill:#4f4fb2;}</style></defs><title>Tokens</title><g id="Слой_2" data-name="Слой 2"><g id="Слой_1-2" data-name="Слой 1"><path class="cls-1" d="M7.91,0a7.91,7.91,0,1,0,7.91,7.91A7.91,7.91,0,0,0,7.91,0Zm0,14.36a6.45,6.45,0,1,1,6.45-6.45A6.45,6.45,0,0,1,7.91,14.36Z"/><path class="cls-1" d="M7.31,11A3.11,3.11,0,0,1,4.89,8.5a.72.72,0,0,0-.7-.58h0a.72.72,0,0,0-.72.85A4.53,4.53,0,0,0,7,12.36a.72.72,0,0,0,.85-.71h0A.71.71,0,0,0,7.31,11Z"/></g></g></svg>