<?xml version="1.0" encoding="utf-8"?>
<!-- Generator: Adobe Illustrator 22.1.0, SVG Export Plug-In . SVG Version: 6.00 Build 0)  -->
<svg version="1.1" xmlns="http://www.w3.org/2000/svg" xmlns:xlink="http://www.w3.org/1999/xlink" x="0px" y="0px"
	 viewBox="0 0 32 32" style="enable-background:new 0 0 32 32;" xml:space="preserve">
<style type="text/css">
	.st0{fill:#773939;}
	.st1{fill:#752E2E;}
</style>
<g id="Capa_1">
	<g>
		<g id="Transform">
			<g>
				<path d="M29.5,8C30.9,8,32,6.9,32,5.5v-3C32,1.1,30.9,0,29.5,0h-3C25.1,0,24,1.1,24,2.5V3H8V2.5C8,1.1,6.9,0,5.5,0h-3
					C1.1,0,0,1.1,0,2.5v3C0,6.9,1.1,8,2.5,8H3v16H2.5C1.1,24,0,25.1,0,26.5v3C0,30.9,1.1,32,2.5,32h3C6.9,32,8,30.9,8,29.5V29h12.4
					c0.6,0,1-0.4,1-1v0c0-0.6-0.4-1-1-1H8v-0.5C8,25.1,6.9,24,5.5,24H5V8h0.5C6.9,8,8,6.9,8,5.5V5h16v0.5C24,6.9,25.1,8,26.5,8H27
					v16h-0.5c-1.4,0-2.5,1.1-2.5,2.5V27h0v2h0v0.5c0,1.4,1.1,2.5,2.5,2.5h3c1.4,0,2.5-1.1,2.5-2.5v-3c0-1.4-1.1-2.5-2.5-2.5H29V8
					H29.5z M5.5,26C5.8,26,6,26.2,6,26.5v3C6,29.8,5.8,30,5.5,30h-3C2.2,30,2,29.8,2,29.5v-3C2,26.2,2.2,26,2.5,26H5.5z M6,5.5
					C6,5.8,5.8,6,5.5,6h-3C2.2,6,2,5.8,2,5.5v-3C2,2.2,2.2,2,2.5,2h3C5.8,2,6,2.2,6,2.5V5.5z M29.5,26c0.3,0,0.5,0.2,0.5,0.5v3
					c0,0.3-0.2,0.5-0.5,0.5h-3c-0.3,0-0.5-0.2-0.5-0.5v-3c0-0.3,0.2-0.5,0.5-0.5H29.5z M26.5,6C26.2,6,26,5.8,26,5.5v-3
					C26,2.2,26.2,2,26.5,2h3C29.8,2,30,2.2,30,2.5v3C30,5.8,29.8,6,29.5,6H26.5z"/>
			</g>
		</g>
	</g>
	<g>
		<g>
			<path d="M76,37.6l-7.8-14V10.2h1.3c0.7,0,1.3-0.6,1.3-1.3c0-0.7-0.6-1.3-1.3-1.3h-2.7h-8h-2.7c-0.7,0-1.3,0.6-1.3,1.3
				s0.6,1.3,1.3,1.3h1.3v13.3l-7.8,14c-0.2,0.4-0.2,0.9,0,1.3c0.2,0.4,0.7,0.7,1.1,0.7h24c0.5,0,0.9-0.3,1.1-0.7
				C76.2,38.5,76.2,38,76,37.6z M53.1,36.9L60,24.5c0.1-0.2,0.2-0.4,0.2-0.6v-3h2.7c0.7,0,1.3-0.6,1.3-1.3c0-0.7-0.6-1.3-1.3-1.3
				h-2.7v-2.7h2.7c0.7,0,1.3-0.6,1.3-1.3s-0.6-1.3-1.3-1.3h-2.7v-2.7h5.3v13.7c0,0.2,0.1,0.5,0.2,0.6l6.9,12.4L53.1,36.9L53.1,36.9z
				"/>
		</g>
	</g>
	<path class="st0" d="M97.5,17.4v16c0,0.1,0,0.1,0,0.2c0,0.1,0,0.1,0,0.2c0,0,0,0,0,0.1c0,0.1-0.1,0.2-0.1,0.2l-3.9,4.8
		c-0.1,0.1-0.1,0.1-0.2,0.2c-0.2,0.3-0.5,0.5-0.9,0.5c-0.4,0-0.7-0.2-0.9-0.4c-0.1-0.1-0.2-0.1-0.2-0.2l-3.9-4.8
		c-0.1-0.1-0.1-0.2-0.1-0.2c0,0,0,0,0-0.1c0-0.1,0-0.1,0-0.2c0-0.1,0-0.1,0-0.2V18.7v-1.3v-4.6c0-2.9,2.3-5.2,5.2-5.2
		s5.2,2.3,5.2,5.2c0,0.2,0,0.4-0.1,0.6h0c0,0.5-0.5,0.9-1,0.9c-0.6,0-1-0.5-1-1c0,0,0,0,0-0.1c0-0.1,0-0.2,0-0.4
		c0-1.8-1.4-3.2-3.2-3.2S89,11.2,89,12.9c0,0,0,0.1,0,0.1h0v5.4v0.3v14.4l3.2,4l3.2-4V18.4h-3.3c-0.6,0-1-0.4-1-1c0-0.6,0.4-1,1-1
		h4.2c0,0,0,0,0.1,0c0,0,0,0,0,0C97,16.4,97.5,16.9,97.5,17.4z"/>
</g>
<g id="Слой_2">
	<path class="st1" d="M64.5,74H52.9h-1.8h-9.6L49,61c0.1-0.2,0.2-0.5,0.1-0.8v-8.3c0,0,0.1,0,0.1,0h2.7c0.6,0,1-0.4,1-1s-0.4-1-1-1
		h-2.7c-0.1,0-0.1,0-0.1,0v-3.4h6.1v13.6c0,0,0,0.1,0,0.1c0,0.2,0,0.4,0.1,0.5l5.5,9.5c0.3,0.5,0.9,0.6,1.4,0.4
		c0.5-0.3,0.6-0.9,0.4-1.4l-5.3-9.2V46.6h1.3c0.6,0,1-0.4,1-1s-0.4-1-1-1h-13c-0.6,0-1,0.4-1,1s0.4,1,1,1h1.5v13.6c0,0,0,0,0,0.1
		l-8.1,14.1c-0.1,0.2-0.2,0.4-0.2,0.6v0c0,0.6,0.4,1,1,1h11.4h1.8h11.6c0.5,0,0.9-0.4,0.9-0.9v-0.2C65.4,74.4,65,74,64.5,74z"/>
</g>
</svg>
