<svg xmlns="http://www.w3.org/2000/svg" viewBox="0 0 10.47 31.93"><defs><style>.cls-1{fill:#773939;}</style></defs><title>Ресурс 1</title><g id="Слой_2" data-name="Слой 2"><g id="Capa_1" data-name="Capa 1"><path class="cls-1" d="M10.47,9.83v16a1,1,0,0,1,0,.17,1.06,1.06,0,0,1,0,.19l0,.07a1.67,1.67,0,0,1-.12.23L6.35,31.31a.87.87,0,0,1-.21.17,1.14,1.14,0,0,1-.9.45,1.16,1.16,0,0,1-.91-.44,1.16,1.16,0,0,1-.22-.18L.23,26.46a.72.72,0,0,1-.12-.23.43.43,0,0,1,0-.07A.58.58,0,0,1,0,26a.53.53,0,0,1,0-.17V5.22a5.22,5.22,0,0,1,10.44,0,6,6,0,0,1-.06.61h0a1,1,0,0,1-2-.08s0,0,0-.06,0-.24,0-.36A3.19,3.19,0,0,0,2,5.33s0,.07,0,.11H2v20l3.23,4,3.24-4V10.82H5.13a1,1,0,1,1,0-2H9.37l.06,0h0A1,1,0,0,1,10.47,9.83Z"/></g></g></svg>