<svg xmlns="http://www.w3.org/2000/svg" viewBox="0 0 31.86 31.86"><defs><style>.cls-1{fill:#492a2a;}</style></defs><title>Motion_design</title><g id="Слой_2" data-name="Слой 2"><g id="Слой_1-2" data-name="Слой 1"><path class="cls-1" d="M15.93,0A15.93,15.93,0,1,0,31.86,15.93,15.93,15.93,0,0,0,15.93,0Zm0,29.83a13.9,13.9,0,1,1,13.9-13.9A13.91,13.91,0,0,1,15.93,29.83Z"/><path class="cls-1" d="M22.08,15.65a.6.6,0,0,0-.06-.19L22,15.38a0,0,0,0,1,0,0,1,1,0,0,0-.34-.28l-4.53-2.61a1,1,0,0,0-1.37.36,1,1,0,0,0,.37,1.37L19.14,16l-5.42,3.12v-8a1,1,0,0,0-2,0v9.71s0,.1,0,.15a.64.64,0,0,0,0,.07.9.9,0,0,0,.08.23.29.29,0,0,0,0,.1,1,1,0,0,0,1.36.37l8.36-4.83a.91.91,0,0,0,.34-.28s0,0,0,0l.06-.07a.7.7,0,0,0,.06-.19.56.56,0,0,0,0-.12.68.68,0,0,0,0-.2.75.75,0,0,0,0-.21A.49.49,0,0,0,22.08,15.65Z"/></g></g></svg>