<svg xmlns="http://www.w3.org/2000/svg" viewBox="0 0 23.82 32.11"><defs><style>.cls-1{fill:#632323;}</style></defs><title>product_design</title><g id="Слой_2" data-name="Слой 2"><g id="Слой_1-2" data-name="Слой 1"><path class="cls-1" d="M22.82,7.5a1,1,0,0,0-1,1V28.3A1.81,1.81,0,0,1,20,30.11H3.81A1.81,1.81,0,0,1,2,28.3V9.5H5.63v2.35H5a1,1,0,0,0,0,2H8.23a1,1,0,0,0,0-2H7.65l0-6.69A3.29,3.29,0,0,1,10.81,2h.34a1.06,1.06,0,0,0,.19,0L12,2l.68,0a1.06,1.06,0,0,0,.19,0h.35a3.28,3.28,0,0,1,3.12,3.2V7.5H12a1,1,0,0,0,0,2h4.36v2.34h-.59a1,1,0,1,0,0,2h3.27a1,1,0,0,0,0-2H18.4l0-6.72A5.27,5.27,0,0,0,13.7,0H10.34A5.26,5.26,0,0,0,5.62,5.12V7.51H1a1,1,0,0,0-1,1V28.64c0,.9.22,3.47,3.93,3.47h16c3.72,0,3.93-2.57,3.94-3.47V8.5A1,1,0,0,0,22.82,7.5Z"/></g></g></svg>