<svg xmlns="http://www.w3.org/2000/svg" viewBox="0 0 33.08 25.8"><defs><style>.cls-1{fill:#632323;}</style></defs><title>UI</title><g id="Слой_2" data-name="Слой 2"><g id="Слой_1-2" data-name="Слой 1"><path class="cls-1" d="M29.62,8.74H28.39V3.93C28.39.22,25.82,0,24.92,0H3.47C2.57,0,0,.22,0,3.93V17c0,3.72,2.57,3.93,3.47,3.94h9.85V23.8H10.19a1,1,0,0,0,0,2h8.26a1,1,0,0,0,0-2H15.32V20.92H18.2a1,1,0,1,0,0-2H3.81A1.81,1.81,0,0,1,2,17.11V3.81A1.81,1.81,0,0,1,3.81,2H24.58a1.81,1.81,0,0,1,1.81,1.81V8.74H25.22c-.9,0-3.47.22-3.47,3.94v9.18c0,3.71,2.57,3.93,3.47,3.94h5a1,1,0,0,0,0-2h-5a1.45,1.45,0,0,1-1.45-1.45V12.19a1.45,1.45,0,0,1,1.45-1.45h4.43a1.45,1.45,0,0,1,1.45,1.45v3.4h0v4.56a1,1,0,0,0,2,0V12.68C33.08,9,30.51,8.75,29.62,8.74Z"/></g></g></svg>