<svg xmlns="http://www.w3.org/2000/svg" xmlns:xlink="http://www.w3.org/1999/xlink" viewBox="0 0 60 24"><defs><style>.a{clip-path:url(#b);}.b{fill:#3b3a3a;}</style><clipPath id="b"><rect width="60" height="24"/></clipPath></defs><g id="a" class="a"><g transform="translate(-57 -10)"><path class="b" d="M35.448,38.851a3.422,3.422,0,0,1-.688-2.261c0-.2,0-.361.017-.483l.605-6.656a3.554,3.554,0,0,1,.73-2.061,2.07,2.07,0,0,1,1.654-.709,1.424,1.424,0,0,1,1.2.4,1.4,1.4,0,0,1,.395,1.2,7.806,7.806,0,0,1-.067.8l-.471,4.49,3.9-5.271.3-.451a2.712,2.712,0,0,1,2.182-1.4,1.775,1.775,0,0,1,1.293.488A1.686,1.686,0,0,1,47,28.2a3.894,3.894,0,0,1-1.007,2.136l-6.213,7.991a3.037,3.037,0,0,1-2.456,1.351,2.317,2.317,0,0,1-1.878-.825Zm23.012.593a1.967,1.967,0,0,1-1.965-1.118,3.744,3.744,0,0,1-2.431,1.118H52.151a3.751,3.751,0,0,1-2.981-1.309,5.054,5.054,0,0,1-1.134-3.428,8.439,8.439,0,0,1,2.225-5.731,6.588,6.588,0,0,1,5.029-2.527,3.5,3.5,0,0,1,3.144,1.485,2.547,2.547,0,0,1,2.2-1.251,1.729,1.729,0,0,1,1.234.468,1.52,1.52,0,0,1,.491,1.151,3.029,3.029,0,0,1-.269,1.118l-.185.451-2.418,5.939h1.846q2.115,0,2.116,1.464a1.889,1.889,0,0,1-.756,1.593,3.357,3.357,0,0,1-2.08.579Zm-5.306-8.207A4.594,4.594,0,0,0,52,34.172q0,1.718,1.393,1.718h.42a1.779,1.779,0,0,0,1.831-1.118l1.179-2.886a2.584,2.584,0,0,0,.235-.952.964.964,0,0,0-.445-.781,1.726,1.726,0,0,0-1.066-.334,3.186,3.186,0,0,0-2.392,1.416ZM27.074,39.443a1.967,1.967,0,0,1-1.965-1.118,3.744,3.744,0,0,1-2.434,1.118H20.76a3.745,3.745,0,0,1-2.979-1.309,5.054,5.054,0,0,1-1.134-3.428,8.439,8.439,0,0,1,2.225-5.731A6.586,6.586,0,0,1,23.9,26.448a3.5,3.5,0,0,1,3.144,1.485,2.547,2.547,0,0,1,2.2-1.251,1.726,1.726,0,0,1,1.233.468,1.517,1.517,0,0,1,.491,1.151,3.025,3.025,0,0,1-.268,1.118l-.185.451L28.1,35.807h1.847q2.115,0,2.116,1.464a1.889,1.889,0,0,1-.756,1.593,3.357,3.357,0,0,1-2.082.579Zm-5.306-8.207a4.6,4.6,0,0,0-1.159,2.936q0,1.718,1.394,1.718h.42a1.779,1.779,0,0,0,1.831-1.118l1.179-2.886a2.6,2.6,0,0,0,.235-.952.966.966,0,0,0-.445-.781,1.73,1.73,0,0,0-1.066-.334,3.186,3.186,0,0,0-2.388,1.416ZM8.139,39.443a3.037,3.037,0,0,1-1.965-.586A1.913,1.913,0,0,1,5.452,37.3a5.423,5.423,0,0,1,.491-1.718L12.723,19l.184-.45a2.589,2.589,0,0,1,2.469-1.868,1.687,1.687,0,0,1,1.2.468,1.483,1.483,0,0,1,.491,1.118,3.116,3.116,0,0,1-.253,1.134l-.185.451L10.1,35.807h1.764Q14,35.807,14,37.292a1.877,1.877,0,0,1-.747,1.585,3.4,3.4,0,0,1-2.091.566Z" transform="translate(52 -6)"/></g></g></svg>