<svg xmlns="http://www.w3.org/2000/svg" xmlns:xlink="http://www.w3.org/1999/xlink" viewBox="0 0 730 164">
  <defs>
    <style>
      .cls-1 {
        clip-path: url(#clip-Logo_lavafeed);
      }

      .cls-2 {
        fill: #3b3a3a;
      }
    </style>
    <clipPath id="clip-Logo_lavafeed">
      <rect width="730" height="164"/>
    </clipPath>
  </defs>
  <g id="Logo_lavafeed" class="cls-1">
    <g id="Group_159" data-name="Group 159" transform="translate(12303 -6443)">
      <path id="Intersection_8" data-name="Intersection 8" class="cls-2" d="M182.742,171.533q-4-4.833-4-13.232,0-1.758.1-2.832l3.515-38.965q.683-7.911,4.248-12.061a12.029,12.029,0,0,1,9.619-4.15q9.277,0,9.277,9.374a46.7,46.7,0,0,1-.391,4.688l-2.734,26.269,22.656-30.859,1.759-2.637q5.663-8.2,12.695-8.2a10.276,10.276,0,0,1,7.52,2.88,9.894,9.894,0,0,1,2.93,7.374q0,4.883-5.86,12.5l-36.132,46.777q-6.055,7.911-14.258,7.911A13.445,13.445,0,0,1,182.742,171.533ZM663.231,175q-7.618,0-11.133-6.25Q645.847,175,638.718,175h-12.4q-10.839,0-17.334-7.421t-6.494-19.726q0-18.849,12.842-33.887t28.858-15.039q11.817,0,18.848,8.5L684.813,54q5.566-13.671,15.527-13.672a10.169,10.169,0,0,1,7.129,2.686,8.6,8.6,0,0,1,2.93,6.593,19.312,19.312,0,0,1-1.465,6.835l-1.172,2.637-38.379,94.629h11.132q12.4,0,12.4,8.691a10.962,10.962,0,0,1-4.395,9.277Q684.129,175,676.414,175Zm-31.2-47.851a29.357,29.357,0,0,0-6.592,18.359q0,8.691,8.2,8.691h3.711q6.739,0,8.888-5.37l7.324-18.067a14.792,14.792,0,0,0,1.367-5.079,6.24,6.24,0,0,0-2.49-4.98,9.428,9.428,0,0,0-6.2-2.051Q638.621,118.652,632.03,127.148ZM543.442,175q-15.43,0-23.486-7.617T511.9,145.117A46.066,46.066,0,0,1,524.642,112.6q12.744-13.673,30.323-13.672,12.793,0,20.556,6.689t7.764,17.627q0,13.183-10.742,19.531-5.958,3.614-17.773,3.614H535.238q0,7.324,11.035,7.324h29q12.305,0,12.3,8.691a11.008,11.008,0,0,1-4.346,9.277Q578.89,175,571.078,175Zm-3.515-46.386h10.742q10.449,0,10.156-4.59-.293-5.176-6.738-5.176Q545.1,118.848,539.926,128.614ZM452.949,175q-15.43,0-23.486-7.617t-8.057-22.266A46.066,46.066,0,0,1,434.15,112.6q12.744-13.673,30.323-13.672,12.793,0,20.556,6.689t7.764,17.627q0,13.183-10.742,19.531-5.958,3.614-17.773,3.614H444.746q0,7.324,11.036,7.324h29q12.305,0,12.3,8.691a11.006,11.006,0,0,1-4.346,9.277Q488.4,175,480.586,175Zm-3.515-46.386h10.742q10.45,0,10.156-4.59-.293-5.176-6.738-5.176Q454.609,118.848,449.434,128.614ZM316.594,175q-8.4,0-11.426-6.543Q297.843,175,291.008,175H279.875q-10.742,0-17.334-7.665t-6.592-20.069q0-18.749,12.939-33.545t29.248-14.794q12.5,0,18.262,8.691,4.883-7.325,12.793-7.324a10.016,10.016,0,0,1,7.177,2.734,8.922,8.922,0,0,1,2.881,6.738,17.769,17.769,0,0,1-1.562,6.543l-1.074,2.636-14.062,34.766h10.742q12.3,0,12.3,8.594a11.1,11.1,0,0,1-4.394,9.326q-4.4,3.37-12.11,3.369Zm-30.859-48.047Q279,135.254,279,144.14,279,154.2,287.1,154.2h2.441q8.008,0,10.645-6.543l6.836-16.894a15.247,15.247,0,0,0,1.367-5.566,5.664,5.664,0,0,0-2.587-4.59,10,10,0,0,0-6.2-1.953Q292.473,118.652,285.735,126.953ZM134.047,175q-8.4,0-11.425-6.543Q115.3,175,108.461,175H97.328q-10.742,0-17.334-7.665T73.4,147.265q0-18.749,12.939-33.545T115.59,98.926q12.5,0,18.262,8.691,4.883-7.325,12.793-7.324a10.019,10.019,0,0,1,7.178,2.734,8.922,8.922,0,0,1,2.881,6.738,17.773,17.773,0,0,1-1.563,6.543l-1.074,2.636L140,153.711h10.742q12.3,0,12.3,8.594a11.1,11.1,0,0,1-4.395,9.326Q154.262,175,146.547,175Zm-30.859-48.047q-6.739,8.3-6.738,17.187,0,10.059,8.105,10.058H107q8.007,0,10.644-6.543l6.836-16.894a15.246,15.246,0,0,0,1.367-5.566,5.664,5.664,0,0,0-2.588-4.59,10,10,0,0,0-6.2-1.953Q109.926,118.652,103.188,126.953ZM23.926,175Q16.7,175,12.5,171.582a11.224,11.224,0,0,1-4.2-9.18q0-3.027,2.832-10.058l39.453-97.07,1.074-2.637Q56.153,41.7,66.016,41.7A9.771,9.771,0,0,1,73,44.434a8.706,8.706,0,0,1,2.881,6.543,18.365,18.365,0,0,1-1.465,6.64L73.34,60.254,35.352,153.711H45.606q12.4,0,12.4,8.691a11.007,11.007,0,0,1-4.345,9.277Q49.317,175,41.5,175Z" transform="translate(-12299 6413)"/>
      <path id="Path_119" data-name="Path 119" class="cls-2" d="M-11788.818,6648.95l15.551-37.9s16.541,1.079,17.99-10.121c1.742-10.614-8.149-11.082-9.456-11.082l12.5-30.959h17.27s13.528.676,15.67-9.635c1.961-9.48-6.578-11.84-10.261-12.19-2.59-.135-28.241-.338-28.241-.338s-11.114-.44-16.726,15.994c-6.292,15.936-39.107,95.77-40.861,102.155,0,0-4.086,13.729,8.091,14.547S-11791.025,6654.873-11788.818,6648.95Z" transform="translate(-126 -82)"/>
    </g>
  </g>
</svg>
