<svg xmlns="http://www.w3.org/2000/svg" viewBox="0 0 16.63 15.82"><defs><style>.cls-1{fill:#8484d3;}</style></defs><title>Comments</title><g id="Слой_2" data-name="Слой 2"><g id="Слой_1-2" data-name="Слой 1"><path class="cls-1" d="M8.72,0A7.9,7.9,0,0,0,1.55,11.24C.24,13.65.52,13,.29,13.47c-.94,2.08.65,2,1.14,2,2.84-.19,1.55-.14,3.94-.36a8,8,0,0,0,3.35.74A7.91,7.91,0,0,0,8.72,0Zm0,14.36a9.54,9.54,0,0,1-3-.57c-.8-.19-3.63.29-4,.2s1.47-1.94,1.23-3.05a9.73,9.73,0,0,1-.67-3,6.45,6.45,0,1,1,6.45,6.45Z"/></g></g></svg>