<svg xmlns="http://www.w3.org/2000/svg" viewBox="0 0 14.17 16.9"><defs><style>.cls-1{fill:#539191;}</style></defs><title>Share</title><g id="Слой_2" data-name="Слой 2"><g id="Слой_1-2" data-name="Слой 1"><path class="cls-1" d="M11.08,10.73a3.06,3.06,0,0,0-2,.75L6,9.51a3.25,3.25,0,0,0,.16-.94A3.12,3.12,0,0,0,6,7.65L9.17,5.6l.06-.06A3.08,3.08,0,1,0,8,3.08a3,3,0,0,0,.23,1.16l-3.12,2a3,3,0,0,0-2-.78,3.08,3.08,0,1,0,2,5.4l3.07,2a3.13,3.13,0,0,0-.17,1,3.09,3.09,0,1,0,3.08-3.08Zm0-9.19A1.55,1.55,0,1,1,9.54,3.08,1.55,1.55,0,0,1,11.08,1.54Zm-8,8.57A1.54,1.54,0,1,1,4.63,8.57,1.54,1.54,0,0,1,3.08,10.11Zm8,5.25a1.55,1.55,0,1,1,1.55-1.55A1.54,1.54,0,0,1,11.08,15.36Z"/></g></g></svg>